<svg xmlns="http://www.w3.org/2000/svg" width="20.984" height="17.457" viewBox="0 0 20.984 17.457">
  <path id="Tracé_44" data-name="Tracé 44" d="M.335,49.259l7.578-7.578a1.152,1.152,0,0,1,1.624,0l.688.688a1.14,1.14,0,0,1,.335.812,1.162,1.162,0,0,1-.335.822L5.8,48.434H19.851a1.121,1.121,0,0,1,1.134,1.129v.973a1.164,1.164,0,0,1-1.134,1.179H5.755l4.471,4.455a1.137,1.137,0,0,1,0,1.613l-.688.686a1.152,1.152,0,0,1-1.624,0L.335,50.889a1.158,1.158,0,0,1,0-1.63Z" transform="translate(0 -41.346)" fill="#494949"/>
</svg>
