<svg id="close" xmlns="http://www.w3.org/2000/svg" width="15" height="14.999" viewBox="0 0 15 14.999">
  <defs>
    <style>
      .cls-1 {
        fill: #faf9f9;
      }
    </style>
  </defs>
  <g id="Groupe_41" data-name="Groupe 41">
    <path id="Tracé_42" data-name="Tracé 42" class="cls-1" d="M9.152,7.515,14.76,1.907a.822.822,0,0,0,0-1.16L14.269.256a.822.822,0,0,0-1.16,0L7.5,5.864,1.892.256a.822.822,0,0,0-1.16,0L.24.747a.821.821,0,0,0,0,1.16L5.848,7.515.24,13.124a.823.823,0,0,0,0,1.16l.492.491a.822.822,0,0,0,1.16,0L7.5,9.167l5.608,5.608a.814.814,0,0,0,.58.24h0a.814.814,0,0,0,.58-.24l.491-.491a.823.823,0,0,0,0-1.16Z" transform="translate(0 -0.016)"/>
  </g>
</svg>
